<svg width="190" height="106" viewBox="0 0 190 106" fill="none" xmlns="http://www.w3.org/2000/svg">
<circle cx="53" cy="53" r="53" fill="#94D0D5"/>
<path d="M28.642 70V35.0909H43.0625C45.6761 35.0909 47.9318 35.6023 49.8295 36.625C51.7386 37.6364 53.2102 39.0511 54.2443 40.8693C55.2784 42.6761 55.7955 44.7784 55.7955 47.1761C55.7955 49.5852 55.267 51.6932 54.2102 53.5C53.1648 55.2955 51.6705 56.6875 49.7273 57.6761C47.7841 58.6648 45.4773 59.1591 42.8068 59.1591H33.9091V52.5114H41.2386C42.5114 52.5114 43.5739 52.2898 44.4261 51.8466C45.2898 51.4034 45.9432 50.7841 46.3864 49.9886C46.8295 49.1818 47.0511 48.2443 47.0511 47.1761C47.0511 46.0966 46.8295 45.1648 46.3864 44.3807C45.9432 43.5852 45.2898 42.9716 44.4261 42.5398C43.5625 42.108 42.5 41.892 41.2386 41.892H37.0795V70H28.642ZM71.6605 70.4943C68.9105 70.4943 66.5469 69.9318 64.5696 68.8068C62.6037 67.6705 61.0866 66.0909 60.0185 64.0682C58.9616 62.0341 58.4332 59.6761 58.4332 56.9943C58.4332 54.3011 58.9616 51.9432 60.0185 49.9205C61.0866 47.8864 62.6037 46.3068 64.5696 45.1818C66.5469 44.0455 68.9105 43.4773 71.6605 43.4773C74.4105 43.4773 76.7685 44.0455 78.7344 45.1818C80.7116 46.3068 82.2287 47.8864 83.2855 49.9205C84.3537 51.9432 84.8878 54.3011 84.8878 56.9943C84.8878 59.6761 84.3537 62.0341 83.2855 64.0682C82.2287 66.0909 80.7116 67.6705 78.7344 68.8068C76.7685 69.9318 74.4105 70.4943 71.6605 70.4943ZM71.7116 64.2045C72.7116 64.2045 73.5582 63.8977 74.2514 63.2841C74.9446 62.6705 75.473 61.8182 75.8366 60.7273C76.2116 59.6364 76.3991 58.375 76.3991 56.9432C76.3991 55.4886 76.2116 54.2159 75.8366 53.125C75.473 52.0341 74.9446 51.1818 74.2514 50.5682C73.5582 49.9545 72.7116 49.6477 71.7116 49.6477C70.6776 49.6477 69.8026 49.9545 69.0866 50.5682C68.3821 51.1818 67.8423 52.0341 67.4673 53.125C67.1037 54.2159 66.9219 55.4886 66.9219 56.9432C66.9219 58.375 67.1037 59.6364 67.4673 60.7273C67.8423 61.8182 68.3821 62.6705 69.0866 63.2841C69.8026 63.8977 70.6776 64.2045 71.7116 64.2045ZM89.1577 70V43.8182H97.2543V48.5909H97.527C98.0043 46.8636 98.7827 45.5795 99.8622 44.7386C100.942 43.8864 102.197 43.4602 103.629 43.4602C104.016 43.4602 104.413 43.4886 104.822 43.5455C105.232 43.5909 105.612 43.6648 105.964 43.767V51.0114C105.567 50.875 105.044 50.767 104.396 50.6875C103.76 50.608 103.192 50.5682 102.692 50.5682C101.703 50.5682 100.811 50.7898 100.016 51.233C99.2315 51.6648 98.6122 52.2727 98.1577 53.0568C97.7145 53.8295 97.4929 54.7386 97.4929 55.7841V70H89.1577ZM125.358 43.8182V49.9545H108.841V43.8182H125.358ZM112.301 37.5455H120.636V61.767C120.636 62.2784 120.716 62.6932 120.875 63.0114C121.045 63.3182 121.29 63.5398 121.608 63.6761C121.926 63.8011 122.307 63.8636 122.75 63.8636C123.068 63.8636 123.403 63.8352 123.756 63.7784C124.119 63.7102 124.392 63.6534 124.574 63.608L125.835 69.625C125.438 69.7386 124.875 69.8807 124.148 70.0511C123.432 70.2216 122.574 70.3295 121.574 70.375C119.619 70.4659 117.943 70.2386 116.545 69.6932C115.159 69.1364 114.097 68.2727 113.358 67.1023C112.631 65.9318 112.278 64.4602 112.301 62.6875V37.5455ZM144.491 43.8182V49.9545H127.651V43.8182H144.491ZM131.162 70V42.4886C131.162 40.4659 131.543 38.7898 132.304 37.4602C133.065 36.1193 134.122 35.1193 135.474 34.4602C136.827 33.7898 138.389 33.4545 140.162 33.4545C141.321 33.4545 142.412 33.5455 143.435 33.7273C144.469 33.8977 145.236 34.0511 145.736 34.1875L144.406 40.2898C144.099 40.1875 143.724 40.1023 143.281 40.0341C142.849 39.9659 142.44 39.9318 142.054 39.9318C141.077 39.9318 140.406 40.1477 140.043 40.5795C139.679 41.0114 139.497 41.6023 139.497 42.3523V70H131.162ZM159.879 70.4943C157.129 70.4943 154.766 69.9318 152.788 68.8068C150.822 67.6705 149.305 66.0909 148.237 64.0682C147.18 62.0341 146.652 59.6761 146.652 56.9943C146.652 54.3011 147.18 51.9432 148.237 49.9205C149.305 47.8864 150.822 46.3068 152.788 45.1818C154.766 44.0455 157.129 43.4773 159.879 43.4773C162.629 43.4773 164.987 44.0455 166.953 45.1818C168.93 46.3068 170.447 47.8864 171.504 49.9205C172.572 51.9432 173.107 54.3011 173.107 56.9943C173.107 59.6761 172.572 62.0341 171.504 64.0682C170.447 66.0909 168.93 67.6705 166.953 68.8068C164.987 69.9318 162.629 70.4943 159.879 70.4943ZM159.93 64.2045C160.93 64.2045 161.777 63.8977 162.47 63.2841C163.163 62.6705 163.692 61.8182 164.055 60.7273C164.43 59.6364 164.618 58.375 164.618 56.9432C164.618 55.4886 164.43 54.2159 164.055 53.125C163.692 52.0341 163.163 51.1818 162.47 50.5682C161.777 49.9545 160.93 49.6477 159.93 49.6477C158.896 49.6477 158.021 49.9545 157.305 50.5682C156.601 51.1818 156.061 52.0341 155.686 53.125C155.322 54.2159 155.141 55.4886 155.141 56.9432C155.141 58.375 155.322 59.6364 155.686 60.7273C156.061 61.8182 156.601 62.6705 157.305 63.2841C158.021 63.8977 158.896 64.2045 159.93 64.2045ZM182.064 70.4943C180.837 70.4943 179.786 70.0625 178.911 69.1989C178.047 68.3352 177.621 67.2898 177.632 66.0625C177.621 64.858 178.047 63.8295 178.911 62.9773C179.786 62.1136 180.837 61.6818 182.064 61.6818C183.223 61.6818 184.246 62.1136 185.132 62.9773C186.03 63.8295 186.484 64.858 186.496 66.0625C186.484 66.8807 186.268 67.625 185.848 68.2955C185.439 68.9659 184.899 69.5 184.229 69.8977C183.57 70.2955 182.848 70.4943 182.064 70.4943Z" fill="black"/>
</svg>
